<?xml version="1.0" encoding="utf-8"?>
<!-- Generator: Adobe Illustrator 26.0.0, SVG Export Plug-In . SVG Version: 6.00 Build 0)  -->
<svg version="1.1" id="Layer_1" xmlns="http://www.w3.org/2000/svg" xmlns:xlink="http://www.w3.org/1999/xlink" x="0px" y="0px"
	 viewBox="0 0 40 40" style="enable-background:new 0 0 40 40;" xml:space="preserve">
<style type="text/css">
	.st0{fill-rule:evenodd;clip-rule:evenodd;fill:#191717;}
</style>
<path class="st0" d="M20,0.49c-11.04,0-20,8.95-20,20c0,8.84,5.73,16.33,13.68,18.98c1,0.18,1.37-0.43,1.37-0.96
	c0-0.47-0.02-1.73-0.03-3.4c-5.56,1.21-6.74-2.68-6.74-2.68c-0.91-2.31-2.22-2.93-2.22-2.93c-1.82-1.24,0.14-1.22,0.14-1.22
	c2.01,0.14,3.06,2.06,3.06,2.06c1.78,3.06,4.68,2.17,5.82,1.66c0.18-1.29,0.7-2.17,1.27-2.67c-4.44-0.5-9.11-2.22-9.11-9.88
	c0-2.18,0.78-3.97,2.06-5.37c-0.21-0.51-0.89-2.54,0.2-5.29c0,0,1.68-0.54,5.5,2.05c1.6-0.44,3.31-0.67,5.01-0.67
	c1.7,0.01,3.41,0.23,5.01,0.67c3.82-2.59,5.49-2.05,5.49-2.05c1.09,2.75,0.4,4.79,0.2,5.29c1.28,1.4,2.06,3.18,2.06,5.37
	c0,7.68-4.68,9.37-9.13,9.87c0.72,0.62,1.36,1.84,1.36,3.7c0,2.67-0.02,4.83-0.02,5.49c0,0.53,0.36,1.16,1.38,0.96
	C34.27,36.82,40,29.33,40,20.5C40,9.45,31.04,0.49,20,0.49z"/>
</svg>
